<svg xmlns="http://www.w3.org/2000/svg" width="32px" height="32px"  viewBox="0 0 24 24"><g>
                <path d="M19.437,18.5H4.562c-1.379,0-2.5-1.121-2.5-2.5V8c0-1.379,1.121-2.5,2.5-2.5h14.875
                    c1.379,0,2.5,1.121,2.5,2.5v8C21.937,17.379,20.816,18.5,19.437,18.5z M4.562,6.5c-0.827,0-1.5,0.673-1.5,1.5v8
                    c0,0.827,0.673,1.5,1.5,1.5h14.875c0.827,0,1.5-0.673,1.5-1.5V8c0-0.827-0.673-1.5-1.5-1.5H4.562z"/>
                <path d="M5.548,16.5c3.772,0,7.543,0,11.315,0c0.53,0,1.06,0,1.59,0c0.643,0,0.645-1,0-1
                    c-3.772,0-7.543,0-11.315,0c-0.53,0-1.06,0-1.59,0C4.904,15.5,4.903,16.5,5.548,16.5L5.548,16.5z"/>
                <g>
                    <circle cx="5.82" cy="9.248" r="0.75"/>
                    <circle cx="9.94" cy="9.248" r="0.75"/>
                    <circle cx="14.06" cy="9.248" r="0.75"/>
                    <circle cx="18.18" cy="9.248" r="0.75"/>
                </g>
                <g>
                    <circle cx="5.82" cy="12.998" r="0.75"/>
                    <circle cx="9.94" cy="12.998" r="0.75"/>
                    <circle cx="14.06" cy="12.998" r="0.75"/>
                    <circle cx="18.18" cy="12.998" r="0.75"/>
                </g>
            </g></svg>