<svg xmlns="http://www.w3.org/2000/svg" version="1.1" xmlns:xlink="http://www.w3.org/1999/xlink" xmlns:svgjs="http://svgjs.dev/svgjs" viewBox="0 0 1422 800" opacity="1"><defs><linearGradient x1="50%" y1="0%" x2="50%" y2="100%" id="oooscillate-grad"><stop stop-color="#161b42" stop-opacity="1" offset="0%"></stop><stop stop-color="#9ba0c5" stop-opacity="1" offset="100%"></stop></linearGradient></defs><g stroke-width="1.5" stroke="url(#oooscillate-grad)" fill="none" stroke-linecap="round"><path d="M 0 578 Q 355.5 -100 711 400 Q 1066.5 900 1422 578" opacity="1.00"></path><path d="M 0 544 Q 355.5 -100 711 400 Q 1066.5 900 1422 544" opacity="0.94"></path><path d="M 0 510 Q 355.5 -100 711 400 Q 1066.5 900 1422 510" opacity="0.88"></path><path d="M 0 476 Q 355.5 -100 711 400 Q 1066.5 900 1422 476" opacity="0.82"></path><path d="M 0 442 Q 355.5 -100 711 400 Q 1066.5 900 1422 442" opacity="0.76"></path><path d="M 0 408 Q 355.5 -100 711 400 Q 1066.5 900 1422 408" opacity="0.70"></path><path d="M 0 374 Q 355.5 -100 711 400 Q 1066.5 900 1422 374" opacity="0.64"></path><path d="M 0 340 Q 355.5 -100 711 400 Q 1066.5 900 1422 340" opacity="0.58"></path><path d="M 0 306 Q 355.5 -100 711 400 Q 1066.5 900 1422 306" opacity="0.53"></path><path d="M 0 272 Q 355.5 -100 711 400 Q 1066.5 900 1422 272" opacity="0.47"></path><path d="M 0 238 Q 355.5 -100 711 400 Q 1066.5 900 1422 238" opacity="0.41"></path><path d="M 0 204 Q 355.5 -100 711 400 Q 1066.5 900 1422 204" opacity="0.35"></path><path d="M 0 170 Q 355.5 -100 711 400 Q 1066.5 900 1422 170" opacity="0.29"></path><path d="M 0 136 Q 355.5 -100 711 400 Q 1066.5 900 1422 136" opacity="0.23"></path><path d="M 0 102 Q 355.5 -100 711 400 Q 1066.5 900 1422 102" opacity="0.17"></path><path d="M 0 68 Q 355.5 -100 711 400 Q 1066.5 900 1422 68" opacity="0.11"></path></g></svg>