<svg xmlns="http://www.w3.org/2000/svg" version="1.1" xmlns:xlink="http://www.w3.org/1999/xlink" xmlns:svgjs="http://svgjs.dev/svgjs" viewBox="0 0 800 800"><defs><linearGradient x1="50%" y1="0%" x2="50%" y2="100%" id="uundulate-grad"><stop stop-color="#161b42" stop-opacity="1" offset="45%"></stop><stop stop-color="#9ba0c5" stop-opacity="1" offset="100%"></stop></linearGradient></defs><g stroke-width="2" stroke="url(#uundulate-grad)" fill="none"><path d="M1398.7334130829677 -338.41884219255917C1521.762462770881 -42.29590909445233 1353.9325953010134 650.6106882882414 1103.6382884085488 987.4321386284028C853.3439815160841 1324.2535889685641 557.2770352230798 1317.8977482189302 197.32073999913973 1278.3241194402162C-162.63555522480033 1238.7504906615022 -532.0634999374806 1065.5533340126296 -624.1519286663637 797.4787204905772C-716.2403573952466 529.4041069685247 -382.894742575172 239.0483331376413 -244.7037178995006 -8.434025465633908C-106.51269322382893 -255.91638406890922 -118.71054518273638 -301.7857852266286 39.16498977686001 -390.43660080514445C197.0405247364563 -479.08741638366024 229.85542838445917 -444.79497328679736 513.0988499065647 -433.95794024250915C796.3422714286703 -423.12090719822095 1275.7043633950543 -634.5417752906658 1398.7334130829677 -338.41884219255917C1521.762462770881 -42.29590909445233 1353.9325953010134 650.6106882882414 1103.6382884085488 987.4321386284028 "></path><path d="M1367.5229977388226 -315.3430635928527C1486.7073896239885 -28.473972154061812 1324.122205512554 642.7792940604227 1081.6495957104787 969.0750740774542C839.1769859084036 1295.3708540944854 552.362131687056 1289.2136333682784 203.65447068886397 1250.8766804888987C-145.0531903093281 1212.53972760952 -502.9365117497372 1044.754982105924 -592.1471770808425 785.0577002564357C-681.3578424119479 525.3604184069472 -358.4292780550006 244.07826250827884 -224.5567229004439 4.32972761135602C-90.68416774588707 -235.4188072855668 -102.50083683107869 -279.8547896571075 50.44108766103034 -365.73526724879474C203.3830121531396 -451.6157448404819 235.17245006214216 -418.39494059039595 509.56451466168187 -407.89656482874176C783.9565792612216 -397.39818906708757 1248.3386058536562 -602.2121550316435 1367.5229977388226 -315.3430635928527C1486.7073896239885 -28.473972154061812 1324.122205512554 642.7792940604227 1081.6495957104787 969.0750740774542 "></path><path d="M1336.312582394677 -292.26762068650555C1451.6523164770956 -14.652370907030559 1294.3118157240942 634.9475641392448 1059.660903012409 950.7176738331461C825.0099903007233 1266.4877835270472 547.447228151032 1260.5291828242657 209.9882013785882 1223.4289058442214C-127.47082539385576 1186.3286288641773 -473.8095235619936 1023.956294505859 -560.1424254953214 772.6363443289345C-646.4753274286493 521.3163941520104 -333.9638135348292 249.10785618555724 -204.4097279013872 17.093144994986687C-74.8556422679452 -214.92156619558386 -86.29112847942088 -257.9241297809458 61.71718554520078 -341.0342693858044C209.72549956982243 -424.14440899066295 240.48947173982515 -391.99524358735397 506.030179416799 -381.83552510833374C771.5708870937729 -371.67580662931357 1220.972848312258 -569.8828704659807 1336.312582394677 -292.26762068650555C1451.6523164770956 -14.652370907030559 1294.3118157240942 634.9475641392448 1059.660903012409 950.7176738331461 "></path><path d="M1305.1021670505315 -269.1919946746898C1416.5972433302031 -0.8305865545305551 1264.5014259356349 627.1160173235355 1037.672210314339 932.360456694307C810.842994693043 1237.6048960650783 542.5323246150081 1231.8449153857225 216.3219320683122 1195.981314305013C-109.88846047838342 1160.1177132243035 -444.68253537425005 1003.1577900112627 -528.1376739098002 760.2151715069024C-611.5928124453505 517.2725530025423 -309.49834901465783 254.1376329683044 -184.26273290233053 29.856745484086105C-59.02711679000322 -194.42414200013206 -70.08142012776307 -235.99328679931534 72.9932834293711 -316.33308841734527C216.06798698650528 -396.6728900353752 245.8064934175079 -365.5953634788432 502.49584417191613 -355.77430228245703C759.1851949263239 -345.9532410860708 1193.60709077086 -537.553402794849 1305.1021670505315 -269.1919946746898C1416.5972433302031 -0.8305865545305551 1264.5014259356349 627.1160173235355 1037.672210314339 932.360456694307 "></path><path d="M1273.891751706386 -246.1163991804521C1381.5421701833102 12.99116728039121 1234.6910361471755 619.2844399902483 1015.6835176162692 914.0032090378895C796.6759990853625 1208.721978085531 537.6174210789841 1203.1606174296012 222.65566275803621 1168.5336922482265C-92.3060955629112 1133.906767066852 -415.55554718650654 982.3592549990881 -496.13292232427915 747.7939681672922C-576.7102974620518 513.2286813354963 -285.03288449448644 259.1673792334733 -164.11573790327384 42.6203154556074C-43.19859131206135 -173.9267483222584 -53.87171177610526 -214.062474335263 84.26938131354154 -291.6319379664643C222.41047440318835 -369.2014015976656 251.1235150951909 -339.1955138879106 498.96150892703326 -329.7131099741584C746.7995027588756 -320.2307060604062 1166.241333229462 -505.2239656412955 1273.891751706386 -246.1163991804521C1381.5421701833102 12.99116728039121 1234.6910361471755 619.2844399902483 1015.6835176162692 914.0032090378895 "></path><path d="M1242.6813363622405 -223.04080368621442C1346.4870970364173 26.812921115313202 1204.8806463587164 611.4528626569609 993.6948249181992 895.645961381472C782.5090034776822 1179.8390601059834 532.7025175429601 1174.4763194734799 228.98939344776045 1141.0860701914398C-74.72373064743897 1107.6958209094 -386.428558998763 961.5607199869137 -464.128170738758 735.3727648276817C-541.8277824787531 509.18480966845004 -260.56741997431504 264.1971254986422 -143.96874290421715 55.38388542712869C-27.370065834119373 -153.42935464438483 -37.66200342444745 -192.13166187121055 95.54547919771187 -266.93078751558335C228.75296181987142 -341.729913159956 256.4405367728739 -312.7956642969779 495.42717368215017 -303.65191766585974C734.4138105914269 -294.5081710347416 1138.875575688064 -472.8945284877419 1242.6813363622405 -223.04080368621442C1346.4870970364173 26.812921115313202 1204.8806463587164 611.4528626569609 993.6948249181992 895.645961381472 "></path><path d="M1211.4709210180952 -199.96523870955485C1311.4320238895248 40.63464443265684 1175.070256570257 603.6212548060955 971.7061322201296 877.2886832074767C768.3420078700019 1150.9561116088578 527.7876140069361 1145.7919909997804 235.32312413748468 1113.6384176170752C-57.141365731966744 1081.4848442343703 -357.3015708110195 940.7621544571609 -432.1234191532369 722.9515309704934C-506.9452674954543 505.1409074838257 -236.10195545414365 269.226841246233 -123.82174790516058 68.14742488107186C-11.541540356177507 -132.93199148408928 -21.452295072789752 -170.20087992473645 106.82157708188231 -242.22966758228046C235.0954492365545 -314.25845523982457 261.75755845055664 -286.39584522362344 491.8928384372675 -277.5907558751393C722.028118423978 -268.78566652665506 1111.5098181466656 -440.56512185176655 1211.4709210180952 -199.96523870955485C1311.4320238895248 40.63464443265684 1175.070256570257 603.6212548060955 971.7061322201296 877.2886832074767 "></path><path d="M1180.2605056739494 -176.88964321531716C1276.3769507426318 54.45639826757872 1145.2598667817977 595.7896774728083 949.7174395220595 858.9314355510594C754.1750122623216 1122.0731936293105 522.8727104709119 1117.1076930436593 241.65685482720892 1086.1907955602887C-39.55900081649429 1055.2738980769186 -328.1745826232759 919.9636194449865 -400.11866756771576 710.5303276308832C-472.0627525121556 501.0970358167797 -211.63649093397225 274.2565875114019 -103.674752906104 80.91099485259315C4.286985121764474 -112.43459780621572 -5.242586721131943 -148.270067460684 118.09767496605275 -217.5285171313995C241.43793665323744 -286.78696680211493 267.07458012823963 -259.9959956326908 488.35850319238443 -251.52956356684064C709.6424262565295 -243.0631315009905 1084.1440606052674 -408.23568469821305 1180.2605056739494 -176.88964321531716C1276.3769507426318 54.45639826757872 1145.2598667817977 595.7896774728083 949.7174395220595 858.9314355510594 "></path><path d="M1149.050090329804 -153.8140172035014C1241.3218775957391 68.27818262007872 1115.4494769933383 587.958130657099 927.7287468239895 840.57421841222C740.0080166546411 1093.1903061673413 517.9578069348881 1088.4234256051159 247.99058551693304 1058.7432040210804C-21.976635901022064 1029.0629824370446 -299.04759443553235 899.1651149503903 -368.1139159821946 698.1091548088507C-437.1802375288569 497.05319466731135 -187.17102641380086 279.28636429414894 -83.52775790704732 93.67459534169245C20.11551059970634 -91.93717361076392 10.967121630525753 -126.33922447905354 129.37377285022308 -192.82733616294036C247.7804240699204 -259.3154478468272 272.3916018059225 -233.59611552418005 484.82416794750156 -225.46834074096387C697.2567340890807 -217.34056595774774 1056.778303063869 -375.90621702708137 1149.050090329804 -153.8140172035014C1241.3218775957391 68.27818262007872 1115.4494769933383 587.958130657099 927.7287468239895 840.57421841222 "></path><path d="M1117.8396749856586 -130.73851326199804C1206.2668044488462 82.09984490226611 1085.639087204879 580.1264617710772 905.7400541259199 822.2168792030684C725.8410210469608 1064.3072966350594 513.0429033988639 1059.7390360962602 254.32431620665716 1031.2954904115595C-4.394270985549838 1002.8519447268586 -269.92060624778884 878.3664883854815 -336.1091643966735 685.6878599165061C-402.29772254555814 493.00923144753096 -162.70556189362946 284.3160190065835 -63.38076290799063 106.43807376047948C35.94403607764832 -71.43987148562474 27.176829982183563 -104.40850356773558 140.64987073439352 -168.12627726479377C254.12291148660336 -231.84405096185202 277.7086234836055 -207.19635748598176 481.2898327026187 -199.40723998539966C684.871041921632 -191.6181224848175 1029.412545522471 -343.57687142626224 1117.8396749856586 -130.73851326199804C1206.2668044488462 82.09984490226611 1085.639087204879 580.1264617710772 905.7400541259199 822.2168792030684 "></path><path d="M1086.629259641513 -107.66291776776035C1171.2117313019535 95.92159873718788 1055.8286974164191 572.2948844377897 883.7513614278498 803.8596315466509C711.6740254392805 1035.4243786555119 508.12799986284017 1031.0547381401386 260.6580468963813 1003.8478683547728C13.188093929922388 976.6409985694067 -240.79361806004533 857.5679533733069 -304.1044128111524 673.2666565768959C-367.4152075622594 488.9653597804845 -138.24009737345818 289.34576527175227 -43.23376790893394 119.20164373200066C51.77256155559019 -50.94247780775106 43.38653833384137 -82.47769110368318 151.92596861856384 -143.4251268139128C260.4653989032864 -204.37256252414238 283.02564516128837 -180.79650789504916 477.7554974577358 -173.346047677101C672.4853497541835 -165.89558745915286 1002.0467879810728 -311.2474342727087 1086.629259641513 -107.66291776776035C1171.2117313019535 95.92159873718788 1055.8286974164191 572.2948844377897 883.7513614278498 803.8596315466509 "></path><path d="M1055.4188442973677 -84.58732227352266C1136.1566581550605 109.74335257210987 1026.0183076279598 564.4633071045025 861.76266872978 785.5023838902334C697.5070298316 1006.5414606759646 503.2130963268162 1002.3704401840173 266.9917775861054 976.4002462979863C30.770458845394614 950.4300524119551 -211.66662987230177 836.7694183611325 -272.0996612256312 660.8454532372853C-332.5326925789607 484.9214881134385 -113.77463285328668 294.3755115369213 -23.086772909877254 131.96521370352184C67.60108703353217 -30.445084129877387 59.59624668549918 -60.54687863963085 163.2020665027344 -118.72397636303185C266.8078863199695 -176.9010740864328 288.34266683897135 -154.3966583041165 474.22116221285296 -147.28485536880237C660.0996575867348 -140.17305243348824 974.6810304396745 -278.9179971191552 1055.4188442973677 -84.58732227352266C1136.1566581550605 109.74335257210987 1026.0183076279598 564.4633071045025 861.76266872978 785.5023838902334 "></path><path d="M1024.2084289532222 -61.511757296863095C1101.101585008168 123.56507588945351 996.2079178395004 556.6316992536372 839.7739760317102 767.145105716238C683.3400342239197 977.6585121788389 498.2981927907922 973.6861117103178 273.3255082758295 948.9525937236217C48.35282376086707 924.2190757369256 -182.5396416845582 815.97085283138 -240.09490964011013 648.4242193800969C-297.65017759566194 480.87758592881426 -89.30916833311534 299.4052272845122 -2.939777910820567 144.72875315746512C83.42961251147403 -9.947720969581951 75.80595503715699 -38.61609669315658 174.47816438690472 -94.02285642972896C273.15037373665245 -149.42961616630134 293.6596885166542 -127.99683923076202 470.6868269679701 -121.2236935780819C647.7139654192861 -114.45054792540174 947.3152728982764 -246.58859048317981 1024.2084289532222 -61.511757296863095C1101.101585008168 123.56507588945351 996.2079178395004 556.6316992536372 839.7739760317102 767.145105716238 "></path><path d="M992.9980136090767 -38.43613128504728C1066.0465118612753 137.3868602419535 966.3975280510413 548.8001524379279 817.7852833336403 748.7878885773989C669.1730386162394 948.7756247168697 493.3832892547682 945.0018442717746 279.65923896555364 921.5050021844131C65.9351886763393 898.0081600970516 -153.4126534968147 795.1723483367834 -208.09015805458898 636.0030465580649C-262.76766261236327 476.83374477934615 -64.84370381294389 304.4350040672591 17.207217088236007 157.49235364656442C99.2581379894159 10.549703225869791 92.01566338881469 -16.685253711526116 185.75426227107505 -69.32167546126988C279.4928611533355 -121.95809721101364 298.9767101943371 -101.59695912225123 467.1524917230872 -95.16247075220514C635.3282732518373 -88.72798238215898 919.9495153568782 -214.25912281204813 992.9980136090767 -38.43613128504728C1066.0465118612753 137.3868602419535 966.3975280510413 548.8001524379279 817.7852833336403 748.7878885773989 "></path><path d="M961.7875982649311 -15.360566308387774C1030.9914387143824 151.20858355929727 936.5871382625817 540.9685445870624 795.7965906355703 730.4306104034033C655.0060430085591 919.8926762197441 488.4683857187441 916.317515798075 285.9929696552779 894.0573496100483C83.51755359181152 871.7971834220218 -124.28566530907119 774.3737828070309 -176.08540646906783 623.5818127008765C-227.88514762906453 472.7898425947218 -40.37823929277255 309.4647198148499 37.354212087292694 170.2558931005076C115.086663467358 31.047066386165284 108.2253717404725 5.245528234948154 197.0303601552455 -44.620555527966985C285.83534857001837 -94.48663929088212 304.2937318720201 -75.19714004889676 463.61815647820447 -69.10130896148462C622.9425810843886 -63.00547787407254 892.5837578154799 -181.92971617607276 961.7875982649311 -15.360566308387774C1030.9914387143824 151.20858355929727 936.5871382625817 540.9685445870624 795.7965906355703 730.4306104034033 "></path><path d="M930.5770608504733 7.714998668271846C995.9362434971772 165.03030687664102 906.7766264038098 533.136936736197 773.807775867188 712.0733322294079C640.8389253305661 891.0097277226187 483.55336011240763 887.6331873243757 292.3265782746896 866.6096970356839C101.09979643697136 845.586206746992 -95.15879919164013 753.5752172772784 -144.08077695385919 611.160578843688C-193.0027547160783 468.74594041009755 -15.912896842913653 314.4944355624408 57.50108501603677 183.01943255445076C130.91506687498736 51.54442954646083 124.43495802181769 27.176310181422366 208.30633596910343 -19.91943559466415C292.17771391638894 -67.01518137075067 309.61063147939035 -48.79732097554222 460.083699163009 -43.04014717076416C610.5567668466274 -37.28297336598604 865.2178782037693 -149.60030954009738 930.5770608504733 7.714998668271846C995.9362434971772 165.03030687664102 906.7766264038098 533.136936736197 773.807775867188 712.0733322294079 "></path><path d="M899.3667675766401 30.79059416250948C960.8812924205968 178.8520607115629 876.966358685663 525.3053594029097 751.8192052394306 693.7160845729904C626.6720517931983 862.1268097430711 478.63857864669615 858.9488893682542 298.6604310347261 839.1620749788972C118.68228342275609 819.3752605895402 -66.03168893358406 732.7766822651038 -112.0759032980256 598.7393755040777C-158.12011766246707 464.7020687430514 8.552689747570241 319.5241818276097 77.64820208540596 195.78300252597205C146.74371442324173 72.04182322433445 140.644788443788 49.10712264547476 219.58255592358626 4.781714856216809C298.5203234033844 -39.543692933041086 314.92777522738584 -22.397471384609617 456.5494859884386 -16.978954862465514C598.1711967494914 -11.560438340321411 837.8522427326834 -117.27087238654383 899.3667675766401 30.79059416250948C960.8812924205968 178.8520607115629 876.966358685663 525.3053594029097 751.8192052394306 693.7160845729904 "></path><path d="M868.1563217149167 53.866189656747224C925.8261887561259 192.67381454648466 847.1559383796252 517.4737820696224 729.8304820237827 675.3588369165732C612.5050256679397 833.2438917635236 473.72364459309415 830.2645914121329 304.9941312068722 811.7144529221107C136.2646178206503 793.1643144320888 -36.90473126341868 711.9781472529294 -80.07118223008257 586.3181721644672C-123.23763319674646 460.6581970760052 33.01812375016351 324.5539280927786 97.79516656688452 208.54657249749334C162.57220938360547 92.53921690220807 156.8544662778677 71.0379351095271 230.85862329017846 29.482865307097825C304.86278030248934 -12.072204495331448 320.2447663874907 4.002378206323044 453.0151202259776 9.08223744583313C585.7854740644646 14.162096685343215 810.4864546737072 -84.94143523299033 868.1563217149167 53.866189656747224C925.8261887561259 192.67381454648466 847.1559383796252 517.4737820696224 729.8304820237827 675.3588369165732 "></path><path d="M836.9458453356149 76.94175463340673C890.771054574077 206.49553786382842 817.3454875560096 509.64217421875696 707.8417282905566 657.0015587425776C598.3379690251031 804.3609432663984 468.8086800219139 801.5802629384334 311.32780086144 784.2668003477461C153.84692170096628 766.9533377570588 -7.777804110831369 691.1795817231769 -48.06649167971767 573.8969383072789C-88.35517924860403 456.61429489138095 57.483527235178656 329.5836438403694 117.94210053078496 221.3101119514365C178.4006738263912 113.03658006250362 173.06411359436925 92.96871705600131 242.13466013919265 54.18398524040066C311.20520668401605 15.399253424800008 325.5617270300173 30.402197279677523 449.4807239459385 35.14339923655365C573.3997208618597 39.88460119342972 783.1206360971528 -52.6120285970149 836.9458453356149 76.94175463340673C890.771054574077 206.49553786382842 817.3454875560096 509.64217421875696 707.8417282905566 657.0015587425776 "></path><path d="M805.7354299914696 100.01731961006635C855.7159814271843 220.31726118117217 787.5350977675503 501.8105663678915 685.8530355924868 638.6442805685821C584.1709734174228 775.4779947692728 463.89377648588993 772.895934464734 317.6615315511642 756.8191477733812C171.4292866164385 740.7423610820288 21.349184076912138 670.3810161934242 -16.06174009419658 561.4757044500905C-53.4726642653053 452.5703927067566 81.94899175535005 334.6133595879603 138.0890955298416 234.07365140537968C194.22919930433318 133.5339432227991 189.27382194602706 114.89949900247552 253.4107580233631 78.8851051737035C317.5476941006991 42.870711344931465 330.8787487077002 56.80201635303206 445.94638870105564 61.20456102727411C561.0140286944109 65.60710570151622 755.7548785557547 -20.282621961039524 805.7354299914696 100.01731961006635C855.7159814271843 220.31726118117217 787.5350977675503 501.8105663678915 685.8530355924868 638.6442805685821 "></path><path d="M774.525014647324 123.09291510430398C820.6609082802916 234.13901501609405 757.7247079790909 493.9789890346042 663.8643428944166 620.2870329121647C570.0039778097424 746.5950767897252 458.97887294986594 744.2116365086126 323.99526224088845 729.371525716595C189.01165153191084 714.531414924577 50.4761722646557 649.5824811812498 15.943011491324569 549.05450111048C-18.590149282006564 448.52652103971036 106.41445627552145 339.6431058531291 158.23609052889822 246.83722137690097C210.05772478227505 154.03133690067273 205.48353029768475 136.83031146652792 264.6868559075334 103.58625562458451C323.8901815173821 70.34219978264105 336.1957703853832 83.20186594396466 442.41205345617266 87.26575333557275C548.6283365269622 91.32964072718084 728.3891210143565 12.046815192513975 774.525014647324 123.09291510430398C820.6609082802916 234.13901501609405 757.7247079790909 493.9789890346042 663.8643428944166 620.2870329121647 "></path><path d="M743.3146603383348 146.1685411161198C785.6058961685549 247.96079936859394 727.9143792257878 486.14744221889487 641.875711231503 601.9298157733255C555.8370432372184 717.7121893277559 454.0640304489982 715.5273690700693 330.3290539657687 701.9239341773864C206.59407748253932 688.3204992847034 79.60322148755546 628.7839766866534 47.94782411200197 536.633328288448C16.29242673644842 444.48267989024225 130.87998183084903 344.67288263587614 178.38314656311115 259.6008218660004C225.88631129537316 174.52876109612447 221.6932996844988 158.76115444815844 275.96301482686 128.2874365930436C330.2327299692213 97.81371873792881 341.5128530982223 109.60174605247545 438.87777924644604 113.32697616144947C536.2427053946699 117.05220627042354 701.0234245081145 44.376282863645656 743.3146603383348 146.1685411161198C785.6058961685549 247.96079936859394 727.9143792257878 486.14744221889487 641.875711231503 601.9298157733255 "></path><path d="M712.1042144766111 169.2441366103575C750.550792504084 261.7825532035158 698.1039589197502 478.31586488560765 619.8869880158551 583.5725681169081C541.6700171119599 688.8292713482085 449.1490963953961 686.843071113948 336.6627541379148 674.4763121205999C224.17641188043353 662.1095531272518 108.7301791577209 607.985441674479 79.95254517994493 524.2121249488375C51.17491120216903 440.43880822319625 155.3454158334423 349.70262890104516 198.53011104458972 272.3643918375217C241.71480625573702 195.0261547739981 237.9029775185785 180.69196691221077 287.2390821934523 152.98858704392455C336.5751868683262 125.28520717563839 346.82984425832706 136.00159564340805 435.34341348398505 139.3881684697481C523.856982709643 142.77474129608817 673.6576364491382 76.70572001719916 712.1042144766111 169.2441366103575C750.550792504084 261.7825532035158 698.1039589197502 478.31586488560765 619.8869880158551 583.5725681169081 "></path><path d="M680.8937686148874 192.31973210459518C715.4956888396131 275.6043070384377 668.2935386137127 470.4842875523202 597.898264800207 565.2153204604907C527.5029909867014 659.9463533686611 444.234162341794 658.1587731578265 342.9964543100608 647.0286900638132C241.75874627832764 635.8986069698 137.85713682788628 587.1869066623045 111.95726624788796 511.7909216092273C86.05739566788964 436.39493655615 179.81084983603557 354.73237516621407 218.67707552606822 285.12796180904286C257.5433012161009 215.5235484518717 254.11265535265812 202.6227793762631 298.5151495600446 177.68973749480557C342.91764376743106 152.75669561334797 352.1468354184319 162.4014452343407 431.80904772152417 165.44936077804675C511.4712600246162 168.4972763217528 646.2918483901618 109.03515717075271 680.8937686148874 192.31973210459518C715.4956888396131 275.6043070384377 668.2935386137127 470.4842875523202 597.898264800207 565.2153204604907 "></path><path d="M649.6833532707419 215.39532759883286C680.4406156927203 289.4260608733596 638.4831488252534 462.652710219033 575.9095721021372 546.8580728040733C513.335995379021 631.0634353891137 439.31925880577 629.4744752017052 349.33018499978493 619.5810680070267C259.3411111937999 609.6876608123482 166.98412501562984 566.38837165013 143.9620178334091 499.3697182696169C120.93991065118831 432.3510648891038 204.27631435620697 359.762121431383 238.82407052512485 297.89153178056415C273.37182669404274 236.02094212974532 270.3223637043159 224.5535918403155 309.79124744421506 202.39088794568653C349.260131184114 180.2281840510576 357.4638570961148 188.80129482527332 428.2747124766412 191.5105530863454C499.0855678571676 194.21981134741742 618.9260908487636 141.3645943243062 649.6833532707419 215.39532759883286C680.4406156927203 289.4260608733596 638.4831488252534 462.652710219033 575.9095721021372 546.8580728040733 "></path><path d="M618.4729379265965 238.47089257549243C645.3855425458275 303.24778419070327 608.6727590367939 454.82110236816754 553.9208794040674 528.5007946300778C499.1689997713406 602.1804868919883 434.404355269746 600.7901467280058 355.66391568950905 592.1334154326621C276.9234761092722 583.4766841373184 196.11111320337335 545.5898061203775 175.9667694189302 486.94848441242857C155.82242563448705 428.30716270447954 228.74177887637836 364.79183717897376 258.97106552418154 310.6550712345073C289.20035217198466 256.51830529004087 286.5320720559737 246.48437378678972 321.0673453283854 227.09200787898942C355.6026186007971 207.69964197118907 362.78087877379767 215.20111389862785 424.7403772317583 217.57171487706586C486.69987568971897 219.94231585550392 591.5603333073655 173.69400096028158 618.4729379265965 238.47089257549243C645.3855425458275 303.24778419070327 608.6727590367939 454.82110236816754 553.9208794040674 528.5007946300778 "></path><path d="M587.262492064873 261.546457552152C610.3304388813567 317.069507508047 578.8623387307564 446.9894945173021 531.9321561884192 510.14351645608235C485.0019736460822 573.2975383948626 429.4894212161439 572.1058182543063 361.99761586165516 564.6857628582975C294.50581050716636 557.2657074622884 225.2380708735388 524.791240590625 207.97149048687322 474.52725055524C190.70491010020766 424.2632605198552 253.20721287897163 369.82155292656455 279.11803000566005 323.4186106884505C305.02884713234846 277.01566845033636 302.7417498900533 268.415155733264 332.34341269497764 251.79312781229225C361.945075499902 235.17109989132052 368.09786993390253 241.60093297198233 421.2060114692972 243.63287666778638C474.3141530046921 245.66482036359042 564.1945452483892 206.02340759625702 587.262492064873 261.546457552152C610.3304388813567 317.069507508047 578.8623387307564 446.9894945173021 531.9321561884192 510.14351645608235 "></path><path d="M556.0521072383056 284.6220530463897C575.275396252042 330.89126134296885 549.0519794598752 439.15791718401476 509.9434940079275 491.786268799665C470.8350085559799 544.4146204153152 424.57454819769805 543.421520298185 368.3313770689574 537.2381408015109C312.08820594021677 531.0547613048368 254.36508957886042 503.99270557845045 239.9762725899725 462.1060472156297C225.5874556010845 420.21938885280906 277.67270791672115 374.8512991917335 299.26505552229486 336.1821806599718C320.8574031278685 297.51306212821 318.95148875928925 290.3459681973163 343.61954109672615 276.4942782631732C368.2875934341631 262.64258832903016 373.41492212916353 268.000782562915 417.67170674199247 269.694068976085C461.9284913548215 271.38735538925505 536.8288182245691 238.35284474981052 556.0521072383056 284.6220530463897C575.275396252042 330.89126134296885 549.0519794598752 439.15791718401476 509.9434940079275 491.786268799665 "></path><path d="M524.8416613765819 307.69764854062737C540.2202925875711 344.7130151778907 519.2415591538377 431.32633985072744 487.95477079227953 473.4290211432476C456.6679824307214 515.5317024357678 419.65961414409594 514.7372223420635 374.6650772411034 509.7905187447243C329.67054033811087 504.84381514738504 283.49204724902586 483.19417056627594 271.98099365791546 449.6848438760194C260.4699400668051 416.1755171857628 302.1381419193144 379.8810454569024 319.41202000377336 348.945750631493C336.6858980882323 318.0104558060836 335.1611665933689 312.27678066136866 354.89560846331847 301.19542871405423C374.63005033326795 290.11407676673974 378.73191328926833 294.4006321538476 414.13734097953153 295.7552612843836C449.54276866979467 297.1098904149197 509.4630301655927 270.682281903364 524.8416613765819 307.69764854062737C540.2202925875711 344.7130151778907 519.2415591538377 431.32633985072744 487.95477079227953 473.4290211432476 "></path><path d="M493.6312765500146 330.7732592936541C505.1652499582565 358.5347842716016 489.4311998829563 423.49477777622917 465.9661086117877 455.0717887456193C442.5010173406192 486.64879971500943 414.7447411256501 486.0529396447313 380.9988384484057 482.3429119467269C347.2529357711613 478.63288424872235 312.6190659543475 462.3956508128906 303.98577576101474 437.26365579519813C295.352485567682 412.1316607775057 326.60363695706394 384.9108069808604 339.5590455204082 361.70933586180337C352.51445408375236 338.5078647427463 351.3709054626048 334.2076083842101 366.1717368650669 325.89659442372425C380.97256826752914 317.5855804632384 384.0489654845294 320.8004970035693 410.60303625222673 321.8164688514713C437.1571070199242 322.8324406993733 482.0973031417727 303.01173431570663 493.6312765500146 330.7732592936541C505.1652499582565 358.5347842716016 489.4311998829563 423.49477777622917 465.9661086117877 455.0717887456193 "></path><path d="M462.42083068829095 353.84883952910275C470.11014629378553 372.3565228477344 459.62077957691884 415.6631851841528 443.97738539613977 436.71452583041287C428.3339912153607 457.76586647667295 409.82980707204797 457.36862642982084 387.3325386205517 454.8952746311512C364.83527016905543 452.4219228324816 341.74602362451293 441.59710054192703 335.99049682895776 424.84243719679876C330.23497003340253 408.0877738516705 351.0690709596572 389.9405379872403 359.7060100018867 374.4728905745356C368.34294904411615 359.0052431618309 367.58058329668444 356.1384055894734 377.44780423165923 350.59772961581615C387.315025166634 345.0570536421589 389.3659566446342 347.20033133571286 407.06867048976574 347.8776459009809C424.77138433489733 348.5549604662489 454.73151508279636 335.34115621047107 462.42083068829095 353.84883952910275C470.11014629378553 372.3565228477344 459.62077957691884 415.6631851841528 443.97738539613977 436.71452583041287 "></path><path d="M431.2104153441455 376.9244197645514C435.05507314689277 386.1782614238672 429.8103897884594 407.8315925920764 421.9886926980699 418.35726291520643C414.16699560768035 428.8829332383365 404.914903536024 428.68431321491045 393.6662693102759 427.4476373155756C382.4176350845277 426.2109614162408 370.87301181225644 420.7985502709635 367.99524841447885 412.4212185983994C365.11748501670127 404.04388692583524 375.5345354798286 394.97026899362015 379.85300500094337 387.23644528726777C384.1714745220581 379.50262158091545 383.79029164834225 378.0692027947367 388.7239021158296 375.2988648079081C393.657512583317 372.5285268210795 394.68297832231707 373.60016566785646 403.53433524488287 373.9388229504904C412.38569216744867 374.27748023312444 427.3657575413982 367.67057810523556 431.2104153441455 376.9244197645514C435.05507314689277 386.1782614238672 429.8103897884594 407.8315925920764 421.9886926980699 418.35726291520643 "></path></g></svg>